# xmcd
#
# Track frame offsets:
#   150
#   17857
#   35115
#   49822
#   65318
#   85125
#   102162
#   118670
#   137278
#   151685
#   171192
#
# Disc length: 2462 seconds
#
# Revision: 0
# Processed by: cddbd v1.5.1PL0 Copyright (c) Steve Scherf et al.
# Submitted via: Media_Universe 3.0
#
DISCID=86099c0b
DTITLE=Rascal Flatts - Feels Like Today
DYEAR=1900
DGENRE=Country
TTITLE0=Where You Are
TTITLE1=Bless The Boken Road
TTITLE2=Then I Did
TTITLE3=Feels Like Today
TTITLE4=Fast Cars And Freedom
TTITLE5=When The Sand Runs Out
TTITLE6=Heres To You
TTITLE7=The Day Before You
TTITLE8=Break Away
TTITLE9=Holes
TTITLE10=Oklahoma-Texas Line
EXTD=
EXTT0=
EXTT1=
EXTT2=
EXTT3=
EXTT4=
EXTT5=
EXTT6=
EXTT7=
EXTT8=
EXTT9=
EXTT10=
PLAYORDER=
